<svg width="62" height="32" viewBox="0 0 62 32" fill="none" xmlns="http://www.w3.org/2000/svg">
<path d="M46 32C54.8366 32 62 24.8366 62 16C62 7.16344 54.8366 0 46 0C37.1634 0 30 7.16344 30 16C30 24.8366 37.1634 32 46 32Z" fill="#F5AC37"/>
<path d="M46.5898 17.1298H52.6695C52.7991 17.1298 52.8603 17.1298 52.8697 16.9599C52.9193 16.3414 52.9193 15.7193 52.8697 15.1001C52.8697 14.9799 52.8099 14.9302 52.6796 14.9302H40.5799C40.4301 14.9302 40.3898 14.9799 40.3898 15.1203V16.9001C40.3898 17.1298 40.3898 17.1298 40.6295 17.1298H46.5898ZM52.1907 12.8501C52.208 12.8047 52.208 12.7551 52.1907 12.7104C52.0892 12.4894 51.9689 12.2784 51.8293 12.0804C51.619 11.742 51.3713 11.4302 51.0891 11.1502C50.9559 10.981 50.8018 10.829 50.629 10.7002C49.7636 9.96359 48.7347 9.44231 47.6287 9.18022C47.0707 9.05494 46.5005 8.99518 45.9288 9.00022H40.559C40.4092 9.00022 40.3891 9.05998 40.3891 9.1903V12.7399C40.3891 12.8897 40.3891 12.93 40.5791 12.93H52.1187C52.1187 12.93 52.2188 12.9099 52.2389 12.8501H52.19H52.1907ZM52.1907 19.2099C52.0208 19.1912 51.8494 19.1912 51.6795 19.2099H40.5899C40.4402 19.2099 40.3898 19.2099 40.3898 19.4101V22.8805C40.3898 23.0404 40.3898 23.0807 40.5899 23.0807H45.7099C45.9547 23.0994 46.1995 23.0821 46.4393 23.031C47.1823 22.9777 47.9131 22.8164 48.6101 22.5508C48.8635 22.4629 49.1083 22.3484 49.3395 22.2109H49.4093C50.6096 21.5867 51.5844 20.606 52.1993 19.4022C52.1993 19.4022 52.2692 19.251 52.1907 19.2114V19.2099ZM38.3802 24.88V24.8202V22.4903V21.7004V19.3503C38.3802 19.22 38.3802 19.2006 38.2204 19.2006H36.0503C35.9301 19.2006 35.8804 19.2006 35.8804 19.0407V17.1406H38.2002C38.3298 17.1406 38.3802 17.1406 38.3802 16.9707V15.0908C38.3802 14.9705 38.3802 14.941 38.2204 14.941H36.0503C35.9301 14.941 35.8804 14.941 35.8804 14.7812V13.0215C35.8804 12.9113 35.8804 12.8818 36.0402 12.8818H38.1902C38.3399 12.8818 38.3802 12.8818 38.3802 12.6917V7.30172C38.3802 7.14188 38.3802 7.10156 38.5804 7.10156H46.08C46.6243 7.12316 47.165 7.18292 47.7 7.28156C48.8023 7.48533 49.8615 7.87917 50.8299 8.4415C51.4721 8.8195 52.0633 9.27598 52.5896 9.80159C52.9856 10.2127 53.3427 10.6577 53.6595 11.1314C53.9742 11.6117 54.2355 12.1251 54.4407 12.6615C54.4659 12.8011 54.5998 12.8955 54.7395 12.8717H56.5295C56.7591 12.8717 56.7591 12.8717 56.7692 13.092V14.7322C56.7692 14.892 56.7095 14.9324 56.5489 14.9324H55.1686C55.029 14.9324 54.9886 14.9324 54.9987 15.1124C55.0534 15.7215 55.0534 16.3328 54.9987 16.9419C54.9987 17.1118 54.9987 17.132 55.1895 17.132H56.7685C56.8383 17.222 56.7685 17.312 56.7685 17.4027C56.7786 17.5186 56.7786 17.636 56.7685 17.7519V18.9622C56.7685 19.1322 56.7188 19.1826 56.5683 19.1826H54.6783C54.5466 19.1574 54.4184 19.2416 54.3882 19.3726C53.9382 20.5427 53.2181 21.5917 52.2879 22.4327C51.9481 22.7387 51.5909 23.0267 51.218 23.2924C50.8176 23.5228 50.4281 23.7625 50.0177 23.9526C49.2624 24.2925 48.4704 24.543 47.6575 24.7021C46.8857 24.8404 46.103 24.903 45.3175 24.8922H38.3774V24.8821L38.3802 24.88Z" fill="#FEFEFD"/>
<mask id="mask0_6:184" style="mask-type:alpha" maskUnits="userSpaceOnUse" x="0" y="0" width="32" height="32">
<path d="M32 16C32 24.8366 24.8366 32 16 32C7.16344 32 0 24.8366 0 16C0 7.16344 7.16344 0 16 0C24.8366 0 32 7.16344 32 16Z" fill="white"/>
</mask>
<g mask="url(#mask0_6:184)">
<path d="M32 16C32 24.8366 24.8366 32 16 32C7.16344 32 0 24.8366 0 16C0 7.16344 7.16344 0 16 0C24.8366 0 32 7.16344 32 16Z" fill="white"/>
<path d="M31 16C31 24.2843 24.2843 31 16 31C7.71573 31 1 24.2843 1 16C1 7.71573 7.71573 1 16 1C24.2843 1 31 7.71573 31 16Z" fill="black"/>
<path d="M23.5 16C23.5 20.1421 20.1421 23.5 16 23.5C11.8579 23.5 8.5 20.1421 8.5 16C8.5 11.8579 11.8579 8.5 16 8.5C20.1421 8.5 23.5 11.8579 23.5 16Z" fill="white"/>
<path d="M22.5 16C22.5 19.5899 19.5899 22.5 16 22.5C12.4101 22.5 9.5 19.5899 9.5 16C9.5 12.4101 12.4101 9.5 16 9.5C19.5899 9.5 22.5 12.4101 22.5 16Z" fill="black"/>
<path d="M21.25 1C21.25 3.89949 18.8995 6.25 16 6.25C13.1005 6.25 10.75 3.89949 10.75 1C10.75 -1.89949 13.1005 -4.25 16 -4.25C18.8995 -4.25 21.25 -1.89949 21.25 1Z" fill="white"/>
<path d="M20.25 1C20.25 3.34721 18.3472 5.25 16 5.25C13.6528 5.25 11.75 3.34721 11.75 1C11.75 -1.34721 13.6528 -3.25 16 -3.25C18.3472 -3.25 20.25 -1.34721 20.25 1Z" fill="black"/>
<path d="M0.5 15.5H9V16.5H0.5V15.5Z" fill="white"/>
<path d="M16.5 23L16.5 31.5L15.5 31.5L15.5 23L16.5 23Z" fill="white"/>
<path d="M16.5 5.875L16.5 8.875L15.5 8.875L15.5 5.875L16.5 5.875Z" fill="white"/>
<path d="M23 15.5H31.5V16.5H23V15.5Z" fill="white"/>
<path fill-rule="evenodd" clip-rule="evenodd" d="M20.6119 1.64954C17.6043 0.751173 14.399 0.756949 11.3946 1.66615L11.105 0.709019C14.297 -0.256986 17.7026 -0.263122 20.8981 0.69137L20.9554 0.7085L20.6692 1.66667L20.6119 1.64954Z" fill="white"/>
</g>
</svg>
